<svg width="72" height="71" viewBox="0 0 72 71" fill="none" xmlns="http://www.w3.org/2000/svg">
<path d="M41.2265 35.2799L71.0244 6.04483C71.6133 5.37019 71.921 4.5024 71.8861 3.61485C71.8511 2.7273 71.4761 1.88538 70.836 1.25732C70.1958 0.629257 69.3377 0.261322 68.433 0.22704C67.5284 0.192758 66.6439 0.494653 65.9563 1.0724L36.1584 30.3075L6.36051 1.03713C5.68367 0.373067 4.76567 0 3.80846 0C2.85126 0 1.93326 0.373067 1.25641 1.03713C0.579566 1.70119 0.199318 2.60185 0.199318 3.54098C0.199318 4.4801 0.579566 5.38077 1.25641 6.04483L31.0902 35.2799L1.25641 64.515C0.88014 64.8312 0.57454 65.2202 0.35879 65.6577C0.14304 66.0952 0.0217991 66.5718 0.00267854 67.0575C-0.016442 67.5431 0.0669685 68.0274 0.247677 68.48C0.428386 68.9325 0.702491 69.3435 1.05279 69.6872C1.40308 70.0309 1.822 70.2998 2.28326 70.4771C2.74452 70.6544 3.23815 70.7363 3.73317 70.7175C4.22819 70.6987 4.71392 70.5798 5.15986 70.3681C5.6058 70.1564 6.00234 69.8566 6.32457 69.4874L36.1584 40.2523L65.9563 69.4874C66.6439 70.0652 67.5284 70.3671 68.433 70.3328C69.3377 70.2985 70.1958 69.9306 70.836 69.3025C71.4761 68.6745 71.8511 67.8325 71.8861 66.945C71.921 66.0574 71.6133 65.1896 71.0244 64.515L41.2265 35.2799Z" fill="#EFF2F2"/>
</svg>
