<svg width="189" height="119" viewBox="0 0 189 119" fill="none" xmlns="http://www.w3.org/2000/svg">
<path d="M21.4 1.36H2.28V54H21.4V48.24H8.6V30H19.16V24.56H8.6V7.12H21.4V1.36ZM50.6738 54L43.6338 31.84C47.5538 30.48 49.3938 27.36 49.3938 22.24V11.36C49.3138 4.56 45.7938 1.36 38.2738 1.36H27.4738V54H33.7938V32.56H37.3938L43.7138 54H50.6738ZM37.9538 6.96C41.7138 6.96 42.9938 8.72 42.9938 11.84V22C42.9938 25.36 41.7138 27.04 37.9538 27.04H33.7938V6.96H37.9538ZM74.2538 38.8L63.5338 1.28H56.5738V54H62.1738V17.28L72.8138 54H79.8538V1.28H74.2538V38.8ZM107.059 1.36H87.9394V54H107.059V48.24H94.2594V30H104.819V24.56H94.2594V7.12H107.059V1.36ZM122.893 54.56C130.173 54.56 134.253 51.04 134.253 43.76V38.88C134.173 32.08 131.293 29.2 127.133 26.24L122.253 22.88C119.453 20.88 117.853 19.28 117.853 15.68V11.2C117.853 7.52 119.533 6.16 122.733 6.16C125.933 6.16 127.453 7.76 127.453 11.52L127.533 18.96H133.693V11.68C133.693 4.64 130.013 0.639996 122.653 0.639996C115.293 0.639996 111.613 4.24 111.533 11.12V15.44C111.533 22.24 114.493 25.04 118.973 28.16L123.533 31.52C126.333 33.52 127.933 34.96 127.933 39.12V43.68C127.933 47.6 126.093 49.04 122.813 49.04C119.293 49.04 117.533 47.28 117.533 43.36L117.453 35.2H111.293V43.28C111.293 50.4 114.893 54.56 122.893 54.56ZM137.097 1.36V7.12H145.577V54H151.897V7.12H160.297V1.36H137.097ZM176.218 54.56C184.618 54.56 188.858 50.08 188.858 40.88V14.32C188.858 5.2 184.618 0.719999 176.218 0.719999C167.898 0.799998 163.578 5.2 163.578 14.32V40.88C163.578 50.08 167.898 54.56 176.218 54.56ZM176.218 48.8C172.138 48.8 170.058 46.56 170.058 41.28V13.84C170.058 8.72 172.138 6.48 176.218 6.48C180.298 6.48 182.378 8.72 182.378 13.84V41.28C182.378 46.56 180.298 48.8 176.218 48.8ZM12.04 118.56C19.32 118.56 23.4 115.04 23.4 107.76V102.88C23.32 96.08 20.44 93.2 16.28 90.24L11.4 86.88C8.6 84.88 7 83.28 7 79.68V75.2C7 71.52 8.68 70.16 11.88 70.16C15.08 70.16 16.6 71.76 16.6 75.52L16.68 82.96H22.84V75.68C22.84 68.64 19.16 64.64 11.8 64.64C4.44 64.64 0.76 68.24 0.68 75.12V79.44C0.68 86.24 3.64 89.04 8.12 92.16L12.68 95.52C15.48 97.52 17.08 98.96 17.08 103.12V107.68C17.08 111.6 15.24 113.04 11.96 113.04C8.44 113.04 6.68 111.28 6.68 107.36L6.6 99.2H0.44V107.28C0.44 114.4 4.04 118.56 12.04 118.56ZM48.9375 65.36H29.8175V118H48.9375V112.24H36.1375V94H46.6975V88.56H36.1375V71.12H48.9375V65.36ZM72.6913 102.8L61.9713 65.28H55.0113V118H60.6113V81.28L71.2513 118H78.2913V65.28H72.6913V102.8ZM109.278 118L99.2775 65.28H92.7175L82.7975 118H88.8775L90.5575 107.84H101.438L103.118 118H109.278ZM95.9975 74.64L100.558 102.64H91.3575L95.9975 74.64Z" fill="white"/>
</svg>
